<svg viewBox="0 0 142 58" fill="none" xmlns="http://www.w3.org/2000/svg"><path d="M13.784.696c2.432 0 4.533.459 6.304 1.376 1.792.896 3.157 2.187 4.096 3.872.96 1.685 1.44 3.67 1.44 5.952 0 2.283-.48 4.267-1.44 5.952-.939 1.664-2.304 2.944-4.096 3.84-1.771.875-3.872 1.312-6.304 1.312H6.84V.696h6.944zm0 19.904c2.88 0 5.077-.757 6.592-2.272 1.514-1.536 2.272-3.68 2.272-6.432 0-2.773-.768-4.939-2.304-6.496-1.515-1.557-3.702-2.336-6.56-2.336H9.752V20.6h4.032zM35.257.696V23h-2.912V.696h2.912zM59.996 7.16c-.619-1.301-1.515-2.304-2.688-3.008-1.174-.725-2.539-1.088-4.096-1.088-1.558 0-2.966.363-4.224 1.088-1.238.704-2.219 1.728-2.944 3.072-.704 1.323-1.056 2.859-1.056 4.608 0 1.75.352 3.285 1.056 4.608.725 1.323 1.706 2.347 2.944 3.072 1.258.704 2.666 1.056 4.224 1.056 2.176 0 3.968-.65 5.376-1.952 1.408-1.301 2.229-3.061 2.464-5.28h-8.896v-2.368h12v2.24a11.178 11.178 0 01-1.728 5.056 10.863 10.863 0 01-3.872 3.616c-1.6.875-3.382 1.312-5.344 1.312-2.07 0-3.958-.48-5.664-1.44a10.927 10.927 0 01-4.064-4.064c-.982-1.728-1.472-3.68-1.472-5.856 0-2.176.49-4.128 1.472-5.856 1.002-1.75 2.357-3.104 4.064-4.064C49.254.931 51.142.44 53.212.44c2.368 0 4.458.587 6.272 1.76 1.834 1.173 3.168 2.827 4 4.96h-3.488zM73.798.696V23h-2.912V.696h2.912zm21.57 0v2.368h-6.08V23h-2.911V3.064h-6.112V.696h15.104zm19.649 17.344h-9.728L103.497 23h-3.072L108.489.824h3.36L119.881 23h-3.072l-1.792-4.96zm-.832-2.368l-4.032-11.264-4.032 11.264h8.064zm15.003 4.96h7.808V23h-10.72V.696h2.912v19.936z" fill="#000"/><path d="M15.057 52.04H5.33L3.537 57H.465L8.53 34.824h3.36L19.921 57H16.85l-1.792-4.96zm-.832-2.368l-4.032-11.264-4.032 11.264h8.064zm28.987-8.512c-.619-1.301-1.515-2.304-2.688-3.008-1.174-.725-2.539-1.088-4.096-1.088s-2.965.363-4.224 1.088c-1.238.704-2.219 1.728-2.944 3.072-.704 1.323-1.056 2.859-1.056 4.608 0 1.75.352 3.285 1.056 4.608.725 1.323 1.706 2.347 2.944 3.072 1.258.704 2.666 1.056 4.224 1.056 2.176 0 3.968-.65 5.376-1.952 1.408-1.301 2.23-3.061 2.464-5.28h-8.896v-2.368h12v2.24a11.18 11.18 0 01-1.728 5.056 10.864 10.864 0 01-3.872 3.616c-1.6.875-3.381 1.312-5.344 1.312-2.07 0-3.957-.48-5.664-1.44a10.925 10.925 0 01-4.064-4.064c-.982-1.728-1.472-3.68-1.472-5.856 0-2.176.49-4.128 1.472-5.856 1.003-1.75 2.357-3.104 4.064-4.064 1.707-.981 3.595-1.472 5.664-1.472 2.368 0 4.459.587 6.272 1.76 1.834 1.173 3.168 2.827 4 4.96h-3.488zm13.802-4.096v7.456h8.128v2.4h-8.128v7.68h9.088V57h-12V34.664h12v2.4h-9.088zM90.924 57h-2.912L76.3 39.24V57h-2.912V34.664H76.3l11.712 17.728V34.664h2.912V57zm6.756-11.168c0-2.176.491-4.128 1.472-5.856.982-1.75 2.315-3.115 4-4.096 1.707-.981 3.595-1.472 5.664-1.472 2.432 0 4.555.587 6.368 1.76 1.814 1.173 3.136 2.837 3.968 4.992h-3.488c-.618-1.344-1.514-2.379-2.688-3.104-1.152-.725-2.538-1.088-4.16-1.088-1.557 0-2.954.363-4.192 1.088-1.237.725-2.208 1.76-2.912 3.104-.704 1.323-1.056 2.88-1.056 4.672 0 1.77.352 3.328 1.056 4.672.704 1.323 1.675 2.347 2.912 3.072 1.238.725 2.635 1.088 4.192 1.088 1.622 0 3.008-.352 4.16-1.056 1.174-.725 2.07-1.76 2.688-3.104h3.488c-.832 2.133-2.154 3.787-3.968 4.96-1.813 1.152-3.936 1.728-6.368 1.728-2.069 0-3.957-.48-5.664-1.44-1.685-.981-3.018-2.336-4-4.064-.981-1.728-1.472-3.68-1.472-5.856zm44.303-11.136l-7.264 13.888V57h-2.912v-8.416l-7.296-13.888h3.232l5.504 11.296 5.504-11.296h3.232z" fill="#E01B37"/></svg>