<svg width="277" height="52" fill="none" xmlns="http://www.w3.org/2000/svg"><path d="M92.629 1.902c-2.537 3.171-1.015 6.342 3.17 6.342 2.664 0 3.932-.634 4.186-2.283C100.492 3.298 98.209 0 95.799 0c-.887 0-2.283.888-3.17 1.902zm-11.415 12.43c0 14.331-1.649 18.644-6.849 18.644-3.55 0-7.102-3.678-7.102-7.357 0-3.55 4.692-6.721 8.497-5.834 2.537.634 2.917.38 2.917-3.17 0-3.805-.253-3.932-5.2-3.932-6.722 0-13.824 6.468-13.824 12.556 0 5.58 3.17 11.161 7.61 13.444 4.692 2.41 8.117 2.41 13.57-.254 6.342-3.044 7.99-7.736 7.99-23.844V1.268h-7.609v13.064zm166.146 5.073c0 18.39.888 19.912 11.542 19.912 7.102 0 7.483-.127 7.483-3.044 0-2.79-.634-3.17-5.327-3.551l-5.454-.38-.38-6.596c-.381-6.214-.127-6.721 2.41-6.341 2.156.127 2.79-.507 3.044-3.298.38-2.917 0-3.424-2.664-3.424-2.536 0-3.044-.634-3.044-3.805 0-3.424-.38-3.805-3.805-3.805h-3.805v14.332zm5.327-.127c-1.141 1.142-1.522.507-1.395-2.917 0-4.059.127-4.185 1.395-1.395 1.015 2.156 1.015 3.298 0 4.312zm.254 14.459c.38 1.014.254 1.522-.507 1.141-.761-.38-1.269-1.268-1.269-2.03 0-1.775.888-1.394 1.776.889zM6.512 14.459c-7.356 4.058-8.752 15.092-2.79 21.18 3.043 3.044 4.819 3.678 9.512 3.678 5.58 0 5.834-.127 5.834-3.805 0-3.551-.254-3.805-3.171-3.044-6.595 1.65-10.907-6.848-5.96-11.287 3.17-2.79 6.975-2.664 9.638.253 1.776 1.903 2.156 4.186 1.776 10.147l-.38 7.736h8.242v-8.244c0-9.639-1.775-14.078-6.468-16.614-4.44-2.156-12.176-2.283-16.234 0zm26.253 9.258c.508 12.556 1.903 15.093 8.625 16.361 5.2.888 12.81-1.395 14.458-4.566.761-1.268 1.269-6.975 1.269-12.556V12.683h-8.244l.38 6.976c.761 10.527-.38 13.57-4.566 13.063-3.297-.38-3.424-.507-3.805-10.273l-.38-9.766h-8.117l.38 11.034zM91.995 26v13.317h8.244V12.683h-8.244V26zm17.248-11.541c-4.058 2.282-6.341 6.721-6.468 12.302-.127 12.937 18.39 18.39 26.634 7.863 4.693-5.96 2.537-16.741-3.931-20.166-4.44-2.156-12.176-2.282-16.235 0zm13.064 6.595c2.41 2.283 2.663 8.244.507 10.4-.888.888-3.297 1.522-5.454 1.522-4.819 0-6.975-2.03-6.975-6.469 0-4.312 3.044-7.483 6.975-7.483 1.649 0 3.932.888 4.947 2.03zm16.107-4.439c-3.171 3.17-3.932 4.946-3.932 9.639 0 4.566.761 6.341 3.678 9.258 6.596 6.595 14.079 6.722 14.079.127 0-3.044-.508-3.551-2.41-3.044-7.103 1.903-10.781-7.736-4.566-11.795 2.917-1.902 3.424-1.902 6.341 0 3.425 2.283 3.932 5.073 3.298 21.942L154.521 52h9.386l-.761-15.346c-.381-8.371-1.268-16.361-2.029-17.63-2.283-4.185-6.722-6.341-12.81-6.341-5.073 0-6.722.634-9.893 3.932zm27.776 5.58c0 5.2.634 10.907 1.522 12.683 3.17 7.102 19.151 7.102 22.322 0 .887-1.776 1.522-7.483 1.522-12.683v-9.512h-8.752l.254 9.005c.254 7.483-.127 9.258-1.902 10.527-1.649 1.014-2.918 1.014-4.439 0-1.903-1.142-2.283-3.171-2.157-10.527v-9.005h-8.37v9.512zm31.707-5.961c-7.863 7.864-3.678 21.815 7.102 23.844 5.708 1.015 12.43-1.395 16.361-5.96 4.186-5.074 4.059-6.216-1.014-6.216-2.664 0-4.566.888-5.707 2.537-2.283 3.805-9.766 3.424-12.303-.507-2.537-3.932-.634-9.259 3.678-10.4 5.2-1.268 6.468.76 2.156 3.424-3.424 2.156-3.805 2.79-2.663 5.073 1.395 2.537 1.522 2.537 4.819.38 1.903-1.267 5.327-3.424 7.483-4.819 2.283-1.522 4.186-3.297 4.186-4.058 0-3.298-5.327-6.088-12.683-6.595-6.976-.508-7.737-.254-11.415 3.297zm18.39 2.79c.381.635.254 1.269-.507 1.269-.634 0-1.649-.634-2.029-1.269-.381-.76-.254-1.268.507-1.268.634 0 1.649.508 2.029 1.268z" fill="#fff"/><path d="M229.224 14.078c-3.044 1.776-4.693 6.342-3.171 9.005.634 1.268 3.424 3.424 6.088 4.82 2.79 1.395 5.073 3.17 5.073 3.804 0 .761-2.79 1.269-6.341 1.269-5.961 0-6.342.253-6.342 3.17 0 3.044.381 3.171 7.483 3.171 9.259 0 11.415-.76 12.937-4.693 1.522-4.185-.381-7.483-6.469-10.526-6.595-3.298-6.468-5.073.381-5.073 4.819 0 5.327-.254 5.327-3.171s-.381-3.171-6.342-3.171c-3.424 0-7.356.634-8.624 1.395zm40.839 19.659c-1.903 2.282-.254 5.96 3.044 6.595 3.171.634 5.073-4.186 2.663-6.595-2.41-2.537-3.551-2.537-5.707 0zm3.932.634c0 .634-.508.887-1.269.507-.634-.38-1.268.127-1.268 1.142 0 1.268.761 1.648 2.283 1.141 1.776-.634 1.902-.38.634 1.015-2.029 2.156-4.946-.254-3.805-3.171.888-2.283 3.425-2.79 3.425-.634z" fill="#fff"/></svg>