<svg width="273" height="52" fill="none" xmlns="http://www.w3.org/2000/svg"><path d="M13.085.746c-.124.05-.964.148-1.854.247-.89.074-1.78.247-1.953.346-.248.148 0 .964 1.088 3.51.79 1.83 1.458 3.388 1.508 3.462.05.099.964-.247 2.002-.766 2.967-1.459 5.167-2.003 8.777-2.151 3.362-.149 5.068.074 7.862.964 3.387 1.088 5.81 2.571 8.776 5.365 1.088 1.038 1.805 1.656 1.583 1.384C35.657 6.333 27.869 1.932 19.266.894c-2.077-.247-5.637-.346-6.18-.148zm237.168 11.422l-2.67.84v36.765l1.186.272c.643.148 2.646.395 4.451.544 7.021.642 11.891-.816 15.773-4.648 2.472-2.473 3.684-5.365 3.956-9.593.469-6.675-2.3-11.743-7.442-13.622-.915-.322-1.953-.445-3.956-.445-2.892 0-4.499.42-6.601 1.755-.519.297-.989.569-1.063.569-.074 0-.123-3.017-.123-6.675 0-6.206-.025-6.676-.421-6.65-.247.024-1.631.42-3.09.89zm12.287 15.6c2.225 1.138 3.437 3.19 3.832 6.453.618 4.895-1.211 8.876-4.994 10.804-1.458.742-3.857 1.038-6.23.742l-1.384-.173V28.906l.939-.47c2.967-1.459 5.859-1.706 7.837-.668zM98.602 13.478c-4.574.816-8.826 3.66-11.447 7.566-3.906 5.834-3.906 15.65.025 21.533 5.711 8.505 17.899 10.26 26.058 3.758 2.621-2.077 4.475-4.87 5.587-8.381.495-1.656.569-2.324.569-6.18 0-3.833-.074-4.525-.569-6.181-.939-2.992-2.2-5.093-4.252-7.17-3.387-3.387-6.947-4.92-11.867-5.068-1.558-.05-3.412 0-4.104.123zm7.639 5.39c5.81 2.72 8.579 10.853 6.255 18.245-3.238 10.236-15.6 11.521-20.273 2.102-1.285-2.571-1.508-3.733-1.508-7.565 0-2.967.075-3.709.569-5.192.766-2.3 1.978-4.203 3.56-5.736 2.275-2.15 4.178-2.818 7.491-2.72 1.904.05 2.472.174 3.906.866zm66.925-3.733c.297.94 9.395 34.587 9.395 34.785 0 .074 1.756.148 3.906.148h3.882l3.313-13.3c1.829-7.294 3.387-13.351 3.461-13.45.099-.123 1.657 5.86 3.486 13.276l3.313 13.474h7.788l.37-1.31c.198-.692 2.324-8.53 4.723-17.356 2.398-8.85 4.4-16.267 4.474-16.515.124-.395-.123-.42-2.966-.42h-3.091l-.222.791c-.124.445-1.756 7.195-3.659 14.983l-3.437 14.141-3.733-14.883-3.708-14.908h-6.577L190.3 29.054c-1.978 7.96-3.684 14.537-3.758 14.66-.099.1-1.78-6.452-3.758-14.537l-3.56-14.71h-6.28l.222.668zM2.108 20.648C-1.056 28.856-.636 38.35 3.221 46.162c1.211 2.473 3.486 5.958 3.807 5.835.124-.05 1.211-1.261 2.448-2.72l2.25-2.645-.817-.544C6.533 43.022 3.27 38.3 1.91 33.034c-1.063-4.128-.741-9.642.791-13.276.198-.494.322-.964.272-1.014-.05-.05-.445.791-.865 1.904zm133.85 2.818c-1.409.445-3.51 1.558-4.87 2.522l-1.187.84v-3.213h-5.933v26.453h6.18V30.636l1.311-.766c2.101-1.286 3.634-1.855 5.216-1.978 1.286-.1 1.632-.05 2.349.47.47.296 1.088.964 1.36 1.434.494.815.519 1.31.593 10.556l.074 9.716h5.934l-.074-10.705c-.075-9.444-.149-10.804-.52-11.817-.593-1.558-1.631-2.72-3.164-3.56-1.187-.643-1.607-.742-3.807-.791-1.558-.05-2.844.049-3.462.271zm23.759-.074c-2.62.619-5.884 3.289-7.392 6.082-1.558 2.893-2.126 8.06-1.286 11.645 1.064 4.524 4.129 7.738 8.653 9.098 2.127.643 6.948.593 9.568-.099 2.151-.593 4.648-1.681 4.648-2.077 0-.123-.395-1.013-.915-1.977-.642-1.237-1.013-1.682-1.285-1.583-.223.05-1.236.42-2.25.791-1.533.569-2.274.693-4.326.693-2.102.024-2.671-.075-3.783-.569-2.25-1.014-3.882-3.412-4.351-6.403l-.149-1.039h17.381l-.149-2.917c-.247-4.5-.989-6.75-2.942-8.85-2.002-2.176-4.425-3.091-8.084-3.042-1.31.025-2.794.124-3.338.247zm5.909 5.02c1.063.815 2.027 2.694 2.25 4.425l.173 1.162h-11.027l.149-.89c.321-2.003 1.928-4.253 3.659-5.118 1.31-.692 3.609-.47 4.796.42zm62.401-4.722c-5.86 2.002-9.321 8.875-8.134 16.193 1.236 7.565 7.219 11.718 15.477 10.705 2.521-.297 5.686-1.212 6.971-2.003l.816-.52-.964-1.78c-1.088-2.026-1.014-2.002-3.758-1.013-2.472.915-6.181 1.014-7.936.198-2.25-1.038-3.98-3.51-4.326-6.23L226 37.954h17.207l-.149-3.288c-.074-2.447-.247-3.634-.642-4.747-1.138-3.189-3.338-5.365-6.428-6.329-2.225-.692-5.786-.643-7.961.1zm5.637 4.152c1.656.619 2.991 2.621 3.214 4.822l.148 1.335h-11.002l.173-.816c.841-4.005 4.352-6.527 7.467-5.34zM45.967 30.191c-.445 3.486-2.077 7.615-4.203 10.606-2.868 4.03-7.813 7.392-12.485 8.53-2.028.494-2.028.741 0 .346 9.666-1.83 18.048-8.06 22.498-16.713.692-1.31 1.236-2.472 1.236-2.596 0-.123-1.261-.494-2.77-.816-4.598-.94-4.079-1.013-4.276.643z" fill="#fff"/></svg>