<svg width="190" height="61" fill="none" xmlns="http://www.w3.org/2000/svg"><path d="M115.466 22.913v22.912h6.568V0h-6.568v22.913zM20.084 3.59c-5.391.632-9.912 2.75-13.684 6.462-4.308 4.252-6.4 9.21-6.4 15.19 0 4.477 1.084 8.038 3.59 11.719 3.329 4.898 8.522 8.203 14.814 9.42 1.925.36 6.186.36 8.172-.015 2.84-.54 5.88-1.698 8.125-3.125l1.038-.646v-7.782l-.87.81c-2.887 2.675-6.812 4.207-11.41 4.448-4.673.24-8.919-1.367-11.958-4.523-5.667-5.874-5.667-15.145.015-20.944 3.269-3.366 7.576-4.853 12.753-4.417 4.506.375 7.927 1.743 10.432 4.147.473.465.916.84.962.84.046 0 .061-1.697.046-3.785l-.046-3.787-.763-.585c-1.788-1.338-5.209-2.69-8.156-3.186-1.574-.27-5.209-.405-6.66-.24zM54.16 15.64c-3.422.497-6.675 2.09-9.088 4.463-1.406 1.382-2.276 2.6-3.162 4.447-1.115 2.344-1.344 3.486-1.344 6.626 0 2.975.168 3.862 1.13 6.13 1.023 2.42 3.406 5.244 5.651 6.686 7.591 4.898 17.794 2.975 22.712-4.297 3.497-5.153 3.467-12.02-.061-17.278-1.33-1.984-3.85-4.147-6.11-5.274-2.764-1.367-6.582-1.953-9.729-1.502zm4.413 6.07c1.375.286 3.284 1.218 4.307 2.104 2.306 1.998 3.574 5.5 3.116 8.594-.489 3.38-2.367 5.98-5.285 7.362-2.672 1.247-5.712 1.232-8.476-.06-1.573-.736-3.376-2.509-4.17-4.102-.825-1.667-1.069-2.884-.977-4.958.045-1.457.137-1.923.534-2.96.596-1.562 1.314-2.644 2.55-3.786 2.154-1.983 5.377-2.81 8.401-2.193zm32.242-6.084c-6.858 1.066-12.112 5.874-13.44 12.305-.886 4.267.06 8.76 2.58 12.26.948 1.322 3.193 3.335 4.629 4.192 2.718 1.592 5.177 2.238 8.583 2.238 2.612.015 3.925-.225 6.216-1.096 4.414-1.668 8.095-5.71 9.363-10.292.428-1.503.596-5.199.321-6.791-1.1-6.22-6.033-11.239-12.417-12.606-1.345-.286-4.583-.39-5.835-.21zm4.414 6.085c4.383.901 7.438 4.777 7.438 9.39 0 4.733-3.07 8.519-7.606 9.405-4.292.842-8.507-1.172-10.37-4.943-1.42-2.9-1.451-5.874-.077-8.79 1.848-3.89 6.201-5.979 10.615-5.062zm44.766-6.085c-6.476 1.006-10.905 5.394-12.264 12.11-.321 1.622-.367 5.529-.077 6.896 1.329 6.145 5.224 10.232 11.135 11.674 1.084.255 1.802.33 3.711.33 2.49 0 3.391-.12 5.422-.766 1.436-.45 2.413-.916 3.666-1.743 1.787-1.187 4.429-3.996 4.093-4.327-.092-.09-1.146-.826-2.352-1.622l-2.169-1.473-1.237 1.217c-.855.842-1.573 1.398-2.337 1.788-5.987 3.065-13.12-.345-13.838-6.626l-.076-.63h23.338v-1.548c-.016-7.558-4.2-13.417-10.692-14.98-1.496-.36-4.887-.526-6.323-.3zm5.147 5.634c1.39.466 2.352 1.112 3.483 2.299.931.976 1.71 2.328 1.909 3.29l.107.496h-16.725l.092-.496c.183-.901.947-2.284 1.757-3.14 2.397-2.57 6.139-3.546 9.377-2.45zm13.089-4.823c0 .045 2.887 5.92 6.4 13.086l6.415 13.012-4.246 9.195-4.231 9.195 3.421.045c1.894.015 3.467 0 3.498-.03C169.58 60.865 190 16.542 190 16.437c0-.03-1.558-.045-3.467-.03l-3.467.045-4.277 9.27-4.261 9.255-4.521-9.285-4.521-9.3-3.62-.015c-2 0-3.635.03-3.635.06z" fill="#fff"/></svg>