<svg width="316" height="203" fill="none" xmlns="http://www.w3.org/2000/svg"><path d="M67.633 117.536h25.118V80.258l-25.118 37.278z" fill="#F57D14"/><path d="M36.462 79.657v37.879L92.75 79.657H36.46z" fill="#ED451E"/><path d="M113.945 95.22c1.141 0 2.986-.068 4.071-.59 1.64-.9 2.163-2.31 2.163-4.45 0-2.304-1.387-3.666-2.551-4.213-.89-.45-2.039-.64-3.833-.64h-5.249v9.893h5.399zm1.027 16.637c1.632 0 2.902-.193 3.897-.593 2.037-.916 3.253-2.583 3.296-5.018 0-2.324-1.304-4.105-3.3-4.961-1.439-.6-2.618-.643-4.394-.643h-5.925v11.215h6.426zm-12.746 5.678V79.657h13.131c5.109 0 11.282 2.695 11.282 9.816 0 4.253-1.99 6.983-3.779 8 4.814 1.852 5.756 6.431 5.756 9.13 0 6.054-4.987 10.932-12.917 10.932h-13.473zm55.168-14.014V88.987h-6.216v14.534c0 5.169-2.642 8.504-6.779 8.504-4.125 0-6.767-3.335-6.767-8.504V88.987h-6.227v14.534c0 8.674 5.776 14.22 12.994 14.22 7.231 0 12.995-5.546 12.995-14.22zm17.276-9.41c-4.472 0-7.97 3.955-7.97 9.015 0 4.909 3.564 8.893 7.97 8.893 4.369 0 8.063-4.068 8.063-8.893 0-4.97-3.62-9.014-8.063-9.014zm0 23.63c-7.953 0-14.2-6.357-14.2-14.669 0-8.34 6.247-14.727 14.2-14.727 2.9 0 5.825 1.053 8.063 3.078V79.657h6.21v37.502h-6.056v-2.626c-2.224 2.11-5.202 3.208-8.217 3.208zm31.912-5.731c-4.472 0-7.97-3.989-7.97-9.044 0-4.913 3.566-8.897 7.97-8.897 4.369 0 8.062 4.068 8.062 8.897 0 4.965-3.62 9.044-8.062 9.044zm8.216-23.024v2.569c-2.223-2.11-5.201-3.21-8.216-3.21-7.953 0-14.188 6.357-14.188 14.673 0 8.339 6.235 14.725 14.188 14.725 2.899 0 5.825-1.055 8.062-3.079 0 0 1.257 10.754-8.215 10.754-3.993 0-6.812-2.872-8.078-5.036.002 0-4.966 3.493-4.966 3.493 2.441 4.564 7.608 7.363 13.044 7.363 3.657 0 7.254-1.039 9.812-3.284 3.002-2.652 4.649-6.342 4.649-11.316V88.987h-6.092zm15.939 11.43c.225-1.686 2.267-6.388 7.343-6.388 4.923 0 7.08 4.557 7.273 6.388h-14.616zm17.128-8.083c-2.593-2.721-6.114-3.987-9.793-3.987-7.862 0-13.918 6.539-13.918 14.753 0 8.293 5.923 14.642 14.067 14.642 4.286 0 8.619-2.225 11.277-5.626l-4.85-3.403c-1.594 2.195-4.304 3.347-6.427 3.347-3.323 0-6.704-2.376-7.534-6.46h20.834s1.903-7.426-3.656-13.266zm17.874 19.719c-3.159 0-4.627-1.541-4.627-4.863V94.486h6.07v-5.5h-6.07v-7.869h-6.211v26.072c0 6.6 3.777 10.552 9.86 10.552 1.268 0 2.524-.183 2.524-.183v-5.583c-.78.067-1.221.078-1.546.078v-.001zm9.683-27.252c.457 0 .984-.123.984-.67 0-.492-.472-.616-.897-.616h-.74V84.8h.653zm-1.461-1.973h1.584c.844 0 1.673.353 1.673 1.321 0 .652-.405 1.076-1.039 1.216l1.212 1.972h-.985l-1.054-1.885h-.583v1.885h-.808v-4.509zm1.566 5.656c1.864 0 3.377-1.534 3.377-3.384a3.38 3.38 0 00-3.377-3.381 3.383 3.383 0 00-3.379 3.381c0 1.85 1.516 3.384 3.379 3.384zm0-7.382a3.998 3.998 0 014.012 3.998c0 2.22-1.796 3.963-4.012 3.963-2.216 0-4.012-1.744-4.012-3.963a3.998 3.998 0 014.012-3.998" fill="#fff"/></svg>