<svg width="262" height="54" fill="none" xmlns="http://www.w3.org/2000/svg"><path d="M78.561 1.223c-.144.163-.18 5.078-.162 17.863l.055 17.628 3.187.054 3.205.036.036-10.444.054-10.443 11.11 10.803c6.122 5.943 11.236 10.804 11.38 10.804.126 0 .306-.126.36-.288.054-.162.108-6.986.108-15.161V7.184l-3.025-3.026c-1.657-1.656-3.115-3.007-3.241-3.007-.162 0-.216 2.323-.216 10.732 0 6.374-.073 10.696-.163 10.66-.09-.036-5.095-4.844-11.127-10.678C84.106 6.013 79.084 1.17 78.975 1.097c-.126-.072-.306-.018-.415.126zm43.234-.108c-.18.126-.216 3.818-.18 17.88l.054 17.719h6.302l.09-10.372.09-10.39 11.074 10.786c6.086 5.924 11.218 10.768 11.398 10.768.288.018.306-.828.306-15.27V6.95l-2.989-2.9c-1.657-1.602-3.079-2.88-3.205-2.845-.144.054-.216 3.007-.288 10.714l-.09 10.642-11.128-10.804C127.107 5.833 122.083.971 122.065.971c-.018 0-.144.072-.27.144zm56.846.145c-.433.522-18.331 35.256-18.241 35.4.054.072 1.819.144 3.908.144h3.817L173.527 26c2.971-5.942 5.438-10.804 5.492-10.804.054 0 2.521 4.844 5.492 10.768l5.402 10.75 3.673.054c2.034.018 3.745-.018 3.835-.108.162-.162-18.024-35.455-18.348-35.58-.108-.055-.306.035-.432.18zM23.696 4.014l-3.043 2.9-.09 10.389c-.09 10.084-.108 10.426-.468 11.218-.468 1.008-1.62 2.07-2.539 2.34-.432.127-1.963.18-4.303.145l-3.62-.054-.864-.54c-.594-.379-1.026-.847-1.422-1.531-.54-.972-.559-1.026-.613-3.907-.054-2.197-.144-2.935-.306-2.935-.126 0-1.62 1.314-3.33 2.917L0 27.89l.108 1.008c.36 3.691 2.971 6.662 6.68 7.635 1.53.396 12.137.396 13.65 0 3.042-.793 5.347-2.917 6.355-5.852.325-.937.343-1.747.343-15.198 0-10.371-.055-14.225-.199-14.279-.108-.036-1.566 1.225-3.24 2.81zm186.33.163l-3.098 3.007.036 14.765.054 14.765 3.296.054 3.277.036V18.978c0-14.153-.054-17.827-.216-17.809-.126 0-1.639 1.351-3.349 3.008zM41 1.908c-.054.126-.072 8.013-.054 17.52L41 36.714l11.2.054 11.218.036 1.333-2.683c.738-1.477 1.296-2.719 1.242-2.791-.072-.054-4.267-.108-9.363-.108h-9.237v-9.183l4.285-.036 4.268-.054 1.386-2.701c.756-1.495 1.333-2.755 1.279-2.845-.036-.072-2.575-.126-5.654-.126h-5.564V7.454l7.976-.036 7.96-.054 1.404-2.647c.774-1.459 1.368-2.737 1.296-2.845-.18-.288-24.92-.252-25.029.036zm181.054.036c0 .126 1.422 1.602 3.187 3.277l3.169 3.043 4.61.09c4.573.09 4.609.09 5.528.576 1.17.612 2.484 2.07 2.845 3.151.162.469.288 1.387.288 2.035 0 2.143-1.243 4.015-3.314 4.97-.882.414-1.062.432-5.527.432-3.476 0-4.664.054-4.808.216-.126.18 2.089 2.413 8.589 8.643l8.751 8.409 4.538.018c2.538 0 4.573-.072 4.627-.162.072-.09-2.665-2.791-6.05-5.996-3.403-3.187-6.176-5.87-6.176-5.924 0-.072.486-.486 1.08-.919 3.025-2.25 4.718-5.402 4.898-9.165.18-3.71-.9-6.554-3.457-9.075-1.621-1.603-2.881-2.43-4.718-3.061-2.071-.72-3.223-.81-10.804-.81-5.996 0-7.256.036-7.256.252zm35.256-.072c-3.205.972-3.601 5.312-.594 6.68 2.053.936 4.411-.054 5.114-2.16.882-2.63-1.819-5.33-4.52-4.52zm2.557 1.188c.756.648 1.08 1.333 1.08 2.359 0 1.17-.504 1.963-1.548 2.413-2.485 1.116-4.682-1.513-3.385-4.034.648-1.242 2.755-1.638 3.853-.738z" fill="#fff"/><path d="M256.878 3.726c-.054.144-.072.973-.036 1.855.054 1.585.054 1.603.504 1.603.396 0 .45-.09.504-.685.054-.594.108-.684.45-.63.271.036.469.252.595.684.162.487.324.649.684.685.45.054.468.018.36-.45a5.388 5.388 0 00-.342-.99c-.198-.415-.198-.523.018-.703.378-.306.306-1.008-.144-1.315-.522-.36-2.449-.396-2.593-.054zm1.999.937c0 .252-.144.378-.487.414-.432.054-.504 0-.504-.414s.072-.468.504-.414c.343.036.487.162.487.414zM54.109 48.346c-.414.198-.936.648-1.135.972-1.638 2.647 1.17 5.564 4.07 4.25 1.116-.504 1.603-1.314 1.603-2.629 0-.846-.09-1.206-.433-1.693-.864-1.206-2.683-1.602-4.105-.9zm2.719 1.35c.36.379.468.667.468 1.279 0 1.098-.576 1.675-1.693 1.675-.666 0-.864-.09-1.26-.559-.648-.774-.63-1.638.054-2.34.72-.703 1.747-.739 2.43-.054zm97.432-1.476c-1.963.882-2.395 3.44-.792 4.862 1.548 1.422 4.195.9 4.969-.955.343-.81.217-2.214-.252-2.863-.774-1.08-2.701-1.584-3.925-1.044zm2.521 1.459c.342.324.45.63.45 1.26 0 1.098-.576 1.71-1.602 1.71-1.099 0-1.729-.63-1.729-1.71 0-.702.09-.918.504-1.279.702-.594 1.783-.594 2.377.019zm53.028-1.315c-1.584.81-2.088 2.953-1.026 4.358.864 1.134 2.809 1.494 4.322.81.468-.216.486-.288.486-1.458v-1.225h-1.261v1.8h-.846c-.918-.017-1.314-.215-1.639-.846-.414-.756-.18-1.818.487-2.34.414-.325 1.674-.288 2.142.054.397.27.451.27.847-.108.522-.505.45-.649-.523-1.099-.99-.45-2.016-.432-2.989.054zM40.946 50.975L41 53.82l1.17.054c2 .108 3.044-.108 3.656-.702.432-.45.504-.63.414-1.098-.054-.325-.27-.739-.45-.955-.306-.324-.324-.396-.09-.702.36-.486.324-1.242-.09-1.747-.324-.396-.486-.432-2.52-.486l-2.198-.072.054 2.863zm3.476-1.206c0 .414-.072.45-1.027.504l-1.044.054V49.21l1.044.053c.954.054 1.027.09 1.027.505zm.108 1.8c.18.108.342.36.342.558 0 .433-.648.703-1.729.703h-.792v-1.44h.918c.504 0 1.063.09 1.26.18zm20.689-1.584c0 2.269.342 3.169 1.314 3.619 1.279.612 2.9.234 3.547-.81.307-.505.36-.9.36-2.63v-2.016h-1.26l-.018 1.567c0 .882-.09 1.872-.216 2.214-.198.577-.288.63-.972.685-1.117.09-1.315-.306-1.315-2.611v-1.855h-1.44v1.837zm12.101.99l.053 2.845h1.26l.09-1.639.09-1.62 1.261 1.584c1.224 1.513 1.765 1.927 2.34 1.693.217-.072.27-.576.27-2.9v-2.79h-1.422l-.054 1.602-.054 1.621-1.314-1.62c-1.189-1.459-1.368-1.603-1.945-1.603h-.63l.054 2.827zm12.243 0l.054 2.845 1.729-.018c1.909 0 2.809-.324 3.475-1.225.54-.72.522-2.502-.018-3.277-.648-.9-1.386-1.152-3.457-1.152h-1.837l.054 2.827zm3.44-1.53c.216.107.486.323.612.486.234.306.306 1.422.126 1.908-.18.45-1.044.81-1.963.81h-.81v-3.42h.828c.45 0 .99.09 1.207.215zm16.871 1.584v2.935l1.945-.09c2.107-.108 2.773-.306 3.079-.99.306-.667.234-1.063-.252-1.64-.396-.467-.414-.557-.18-.755.414-.342.342-1.495-.108-1.909-.324-.288-.72-.36-2.431-.396l-2.053-.072v2.917zm3.494-1.513c.198.523-.234.793-1.261.793-.954 0-.972 0-.972-.54s0-.54 1.062-.54c.811 0 1.081.071 1.171.287zm-.054 2.053c.18.108.342.36.342.558 0 .432-.648.703-1.729.703h-.792v-1.441h.918c.504 0 1.063.09 1.261.18zm7.544-3.331c0 .036.486.882 1.081 1.855.972 1.62 1.08 1.89 1.08 2.809v1.008h1.261v-1.008c0-.919.108-1.189 1.08-2.81.594-.972 1.08-1.818 1.08-1.854 0-.054-.306-.09-.666-.09-.648 0-.72.072-1.368 1.188-.775 1.333-.667 1.35-1.639-.342-.468-.774-.558-.846-1.206-.846-.379 0-.703.036-.703.09zm19.807 2.791v2.88h1.243l.054-1.71.054-1.728 1.404 1.728c1.225 1.495 1.477 1.729 1.891 1.675l.486-.054.054-2.845.054-2.827h-1.44l-.054 1.566-.054 1.567-1.261-1.567c-1.116-1.386-1.332-1.566-1.837-1.566h-.594v2.88zm23.949-2.341c0 .522.018.54.9.54h.9v4.7l.685-.054.666-.054.054-2.287.054-2.287.846-.054c.774-.054.846-.09.9-.558l.054-.486h-5.059v.54zm11.2 2.287l.054 2.845.684.054.666.054v-2.359h2.521v2.359l.684-.054.666-.054.054-2.845.054-2.827h-1.458v2.16h-2.521v-2.16h-1.458l.054 2.827zm12.244 0l.054 2.845h1.26l.054-2.845.054-2.827h-1.476l.054 2.827zm8.283 0l.054 2.845h1.26l.09-1.639.09-1.62 1.261 1.584c1.224 1.513 1.764 1.927 2.341 1.693.216-.072.27-.576.27-2.9v-2.79h-1.423l-.054 1.602-.054 1.621-1.314-1.62c-1.189-1.459-1.369-1.603-1.945-1.603h-.63l.054 2.827zm19.771 1.495c0 .09.108.18.252.18.18 0 .288.234.342.666l.072.684.018-.684c.018-.45.126-.666.306-.666.144 0 .27-.09.27-.18 0-.109-.288-.18-.63-.18s-.63.071-.63.18zm2.773.36c-.252.396-.379.486-.559.324-.27-.216-.306.018-.054.396.162.234.234.198.523-.18l.342-.432.09.522c.054.378.072.288.108-.324 0-.468-.018-.846-.054-.846-.054 0-.234.234-.396.54zm-1.333.342c0 .792.342 1.044.396.288 0-.252.018-.54.036-.666.018-.108-.09-.234-.198-.288-.162-.036-.234.162-.234.666z" fill="#fff"/></svg>