<svg width="243" height="50" fill="none" xmlns="http://www.w3.org/2000/svg"><path d="M152.086 3.396c-.157 2.038-.353 4.037-.471 4.39-.156.548.04.705.823.705h1.019l-.274-2.665c-.627-6.152-.745-6.466-1.097-2.43zm-5.761-.94c.196.627.588 2.312.823 3.762.392 2.155.627 2.664 1.215 2.664.392 0 .784-.117.862-.313.118-.157-.47-1.724-1.254-3.488-1.489-3.33-2.273-4.624-1.646-2.625zm11.835-.157c-.196.51-.863 2.116-1.529 3.527-.666 1.45-1.097 2.704-.94 2.821.196.235 1.646.353 1.646.118 0-.04.352-1.685.744-3.605.745-3.527.784-4.664.079-2.861zm-6.27 7.759c-.745.431-.353 1.764.548 1.764.51 0 .823-.314.902-.823.117-.902-.667-1.45-1.45-.94zm-3.566.627c-.431.47-.392.705.117 1.254.627.588.706.588 1.333 0 .509-.549.548-.784.117-1.254-.274-.353-.627-.627-.784-.627-.156 0-.509.274-.783.627zm6.818-.039c-.352.901.157 1.842.902 1.685.862-.157 1.175-1.49.431-1.92-.745-.51-1.098-.431-1.333.235zm-8.464 4.467c-7.485 2.39-12.07 8.935-12.07 17.125 0 8.386 5.251 15.009 13.598 17.164 3.37.901 6.231.784 9.836-.353 6.897-2.194 11.051-7.053 12.227-14.46 1.058-6.74-2.469-14.42-8.151-17.752-4.233-2.468-10.777-3.213-15.44-1.724zm10.972 5.957c2.743 1.371 4.076 2.782 5.526 5.838 1.45 3.096 1.41 7.485-.079 10.66-2.077 4.27-5.956 6.74-10.659 6.74-6.583-.04-11.599-5.29-11.638-12.148 0-3.331.979-6.035 3.056-8.347 2.508-2.782 5.055-3.958 8.582-3.958 2.352 0 3.214.196 5.212 1.215zM0 32.199v17.438h6.466V36.51l3.644-.04c3.096 0 3.958-.156 5.957-1.097 4.35-1.96 6.466-4.86 6.78-9.248.352-4.977-2.587-9.013-7.682-10.58-2.076-.628-3.605-.784-8.856-.784H0v17.438zm13.637-11.404c1.881.784 2.704 1.96 2.94 4.076.313 3.37-1.568 5.604-5.291 6.152-.98.118-2.43.118-3.292 0l-1.528-.274V20.247h2.939c1.646 0 3.527.235 4.232.548zm16.145 8.935c-3.448 8.268-6.78 16.106-7.485 17.478l-1.214 2.468 3.292-.117 3.33-.118 1.607-4.232 1.646-4.193 7.837.078 7.838.118 1.763 4.193 1.764 4.232h3.213c1.803 0 3.253-.078 3.253-.157 0-.117-.667-1.567-1.49-3.252-.862-1.685-4.35-9.444-7.759-17.243l-6.23-14.225h-5.134l-6.23 14.97zm11.56-.666c1.333 3.017 2.508 5.721 2.626 5.956.157.392-1.019.51-5.134.51-2.939 0-5.329-.118-5.329-.314 0-.862 4.86-12.226 5.094-11.952.196.157 1.411 2.782 2.744 5.8zm18.81-14.147c0 .079.275.823.627 1.646.549 1.293.588 3.527.47 17.282l-.117 15.792h5.721l-.117-12.344c-.079-6.78-.04-12.344.078-12.344s4.507 5.565 9.758 12.344l9.561 12.344h5.369l.079-17.438.117-17.438H85.82l.118 11.99c.078 7.642-.04 11.953-.275 11.835-.196-.039-4.545-5.447-9.64-11.99L66.736 14.76h-3.292c-1.803 0-3.292.078-3.292.156zm39.384 17.282v17.438h7.484c6.427 0 7.877-.117 10.071-.784 5.526-1.724 9.719-5.8 11.286-11.09.667-2.155.784-3.409.667-6.661-.118-3.488-.314-4.35-1.372-6.623-1.45-3.096-4.271-6.074-7.054-7.485-3.566-1.842-6.113-2.233-13.872-2.233h-7.21v17.438zm15.557-11.247c3.213 1.176 5.173 2.86 6.505 5.643 1.607 3.253 1.881 5.447 1.097 8.504-1.058 4.193-3.644 7.053-7.641 8.464-2.077.706-8.269.823-8.974.118-.353-.353-.47-3.527-.47-11.952V20.247h3.84c2.586.039 4.389.235 5.643.705zM176.93 32.16v17.477h6.27V35.804l1.607.274c.901.157 2.077.51 2.665.784 1.058.549 4.977 6.505 6.975 10.58l1.058 2.195h3.88c2.116 0 3.801-.117 3.722-.313-.078-.157-1.293-2.038-2.703-4.193a814.777 814.777 0 01-4.194-6.505c-.901-1.411-2.076-2.822-2.625-3.096-1.293-.706-1.254-.94.353-1.49 2.782-1.018 5.29-5.094 5.329-8.542 0-4.115-1.92-7.367-5.525-9.366-2.116-1.176-2.156-1.176-9.444-1.293l-7.368-.157V32.16zm13.167-11.286c2.469 1.175 3.605 4.428 2.391 6.818-1.058 2.116-5.134 3.606-8.112 2.94l-1.176-.275v-10.11h2.783c1.724 0 3.291.235 4.114.627zm31.664-5.251c-.588 1.959-12.815 30.8-13.677 32.368l-.94 1.685 3.331-.117 3.37-.118 1.606-4.232 1.646-4.193h15.518l1.294 2.821c.705 1.568 1.528 3.527 1.763 4.311l.509 1.49H243l-1.607-3.214c-.862-1.803-4.428-9.64-7.837-17.439l-6.27-14.225h-2.626c-2.351 0-2.625.079-2.899.863zm5.642 13.167c1.372 3.174 2.587 5.995 2.704 6.23.157.392-1.018.51-5.133.51-2.939 0-5.33-.118-5.33-.275 0-.51 4.86-12.265 5.095-12.265.117.039 1.293 2.625 2.664 5.8z" fill="#fff"/></svg>